<svg width="109" height="86" viewBox="0 0 109 86" version="1.1" xmlns="http://www.w3.org/2000/svg" xmlns:xlink="http://www.w3.org/1999/xlink">
<title>Group 13</title>
<desc>Created using Figma</desc>
<g id="Canvas" transform="translate(-9483 -4894)">
<g id="Group 13">
<g id="Rectangle 5">
<use xlink:href="#path0_fill" transform="translate(9483 4894)" fill="#4B4B4B"/>
<mask id="mask0_outline_ins">
<use xlink:href="#path0_fill" fill="white" transform="translate(9483 4894)"/>
</mask>
<g mask="url(#mask0_outline_ins)">
<use xlink:href="#path1_stroke_2x" transform="translate(9483 4894)" fill="#FFFFFF"/>
</g>
</g>
<g id="Group 7">
<g id="Rectangle 27">
<use xlink:href="#path2_fill" transform="translate(9485 4900)" fill="#EB484D"/>
</g>
<g id="Rectangle 27">
<use xlink:href="#path2_fill" transform="translate(9485 4905)" fill="#EB484D"/>
</g>
<g id="Rectangle 27">
<use xlink:href="#path3_fill" transform="translate(9485 4910)" fill="#EB484D"/>
</g>
<g id="Rectangle 27">
<use xlink:href="#path2_fill" transform="translate(9485 4915)" fill="#EB484D"/>
</g>
<g id="Rectangle 27">
<use xlink:href="#path2_fill" transform="translate(9485 4920)" fill="#EB484D"/>
</g>
<g id="Rectangle 27">
<use xlink:href="#path3_fill" transform="translate(9485 4925)" fill="#EB484D"/>
</g>
<g id="Rectangle 27">
<use xlink:href="#path2_fill" transform="translate(9485 4930)" fill="#EB484D"/>
</g>
<g id="Rectangle 27">
<use xlink:href="#path2_fill" transform="translate(9485 4935)" fill="#EB484D"/>
</g>
<g id="Rectangle 27">
<use xlink:href="#path3_fill" transform="translate(9485 4940)" fill="#EB484D"/>
</g>
<g id="Rectangle 27">
<use xlink:href="#path2_fill" transform="translate(9485 4945)" fill="#EB484D"/>
</g>
<g id="Rectangle 27">
<use xlink:href="#path2_fill" transform="translate(9485 4950)" fill="#EB484D"/>
</g>
<g id="Rectangle 27">
<use xlink:href="#path3_fill" transform="translate(9485 4955)" fill="#EB484D"/>
</g>
</g>
<g id="Group 9">
<g id="Rectangle 4">
<mask id="mask1_outline_ins">
<use xlink:href="#path4_fill" fill="white" transform="translate(9528 4916)"/>
</mask>
<g mask="url(#mask1_outline_ins)">
<use xlink:href="#path5_stroke_2x" transform="translate(9528 4916)" fill="#FFFFFF"/>
</g>
</g>
<g id="Rectangle 6">
<mask id="mask2_outline_ins">
<use xlink:href="#path6_fill" fill="white" transform="translate(9558 4914)"/>
</mask>
<g mask="url(#mask2_outline_ins)">
<use xlink:href="#path7_stroke_2x" transform="translate(9558 4914)" fill="#FFFFFF"/>
</g>
</g>
<g id="Rectangle 6 Copy">
<mask id="mask3_outline_ins">
<use xlink:href="#path8_fill" fill="white" transform="translate(9587 4915)"/>
</mask>
<g mask="url(#mask3_outline_ins)">
<use xlink:href="#path9_stroke_2x" transform="translate(9587 4915)" fill="#FFFFFF"/>
</g>
</g>
<g id="Rectangle 6 Copy">
<mask id="mask4_outline_ins">
<use xlink:href="#path8_fill" fill="white" transform="translate(9531 4915)"/>
</mask>
<g mask="url(#mask4_outline_ins)">
<use xlink:href="#path9_stroke_2x" transform="translate(9531 4915)" fill="#FFFFFF"/>
</g>
</g>
<g id="Rectangle 6">
<mask id="mask5_outline_ins">
<use xlink:href="#path10_fill" fill="white" transform="translate(9533 4916)"/>
</mask>
<g mask="url(#mask5_outline_ins)">
<use xlink:href="#path11_stroke_2x" transform="translate(9533 4916)" fill="#FFFFFF"/>
</g>
</g>
</g>
</g>
</g>
<defs>
<path id="path0_fill" fill-rule="evenodd" d="M 0 0L 93 0L 93 70L 0 70L 0 0Z"/>
<path id="path1_stroke_2x" d="M 0 0L 0 -2L -2 -2L -2 0L 0 0ZM 93 0L 95 0L 95 -2L 93 -2L 93 0ZM 93 70L 93 72L 95 72L 95 70L 93 70ZM 0 70L -2 70L -2 72L 0 72L 0 70ZM 0 2L 93 2L 93 -2L 0 -2L 0 2ZM 91 0L 91 70L 95 70L 95 0L 91 0ZM 93 68L 0 68L 0 72L 93 72L 93 68ZM 2 70L 2 0L -2 0L -2 70L 2 70Z"/>
<path id="path2_fill" fill-rule="evenodd" d="M 0 0L 6 0L 6 2L 0 2L 0 0Z"/>
<path id="path3_fill" fill-rule="evenodd" d="M 0 0L 14 0L 14 2L 0 2L 0 0Z"/>
<path id="path4_fill" fill-rule="evenodd" d="M 0 32C 0 14.3269 14.3269 0 32 0L 32 0C 49.6731 0 64 14.3269 64 32L 64 32C 64 49.6731 49.6731 64 32 64L 32 64C 14.3269 64 0 49.6731 0 32L 0 32Z"/>
<path id="path5_stroke_2x" d="M 32 -2C 13.2223 -2 -2 13.2223 -2 32L 2 32C 2 15.4315 15.4315 2 32 2L 32 -2ZM 32 2C 48.5685 2 62 15.4315 62 32L 66 32C 66 13.2223 50.7777 -2 32 -2L 32 2ZM 62 32C 62 48.5685 48.5685 62 32 62L 32 66C 50.7777 66 66 50.7777 66 32L 62 32ZM 32 62C 15.4315 62 2 48.5685 2 32L -2 32C -2 50.7777 13.2223 66 32 66L 32 62Z"/>
<path id="path6_fill" fill-rule="evenodd" d="M 0 0L 6 0L 6 6L 0 6L 0 0Z"/>
<path id="path7_stroke_2x" d="M 0 0L 0 -2L -2 -2L -2 0L 0 0ZM 6 0L 8 0L 8 -2L 6 -2L 6 0ZM 6 6L 6 8L 8 8L 8 6L 6 6ZM 0 6L -2 6L -2 8L 0 8L 0 6ZM 0 2L 6 2L 6 -2L 0 -2L 0 2ZM 4 0L 4 6L 8 6L 8 0L 4 0ZM 6 4L 0 4L 0 8L 6 8L 6 4ZM 2 6L 2 0L -2 0L -2 6L 2 6Z"/>
<path id="path8_fill" fill-rule="evenodd" d="M 0 2C 0 0.89543 0.89543 0 2 0L 2 0C 3.10457 0 4 0.895431 4 2L 4 2C 4 3.10457 3.10457 4 2 4L 2 4C 0.89543 4 0 3.10457 0 2L 0 2Z"/>
<path id="path9_stroke_2x" d="M 2 -2C -0.209139 -2 -2 -0.209139 -2 2L 2 2L 2 2L 2 -2ZM 2 2L 2 2L 6 2C 6 -0.209139 4.20914 -2 2 -2L 2 2ZM 2 2L 2 2L 2 6C 4.20914 6 6 4.20914 6 2L 2 2ZM 2 2L 2 2L -2 2C -2 4.20914 -0.209139 6 2 6L 2 2Z"/>
<path id="path10_fill" fill-rule="evenodd" d="M 0 0L 56 0L 56 2L 0 2L 0 0Z"/>
<path id="path11_stroke_2x" d="M 0 0L 0 -2L -2 -2L -2 0L 0 0ZM 56 0L 58 0L 58 -2L 56 -2L 56 0ZM 56 2L 56 4L 58 4L 58 2L 56 2ZM 0 2L -2 2L -2 4L 0 4L 0 2ZM 0 2L 56 2L 56 -2L 0 -2L 0 2ZM 54 0L 54 2L 58 2L 58 0L 54 0ZM 56 0L 0 0L 0 4L 56 4L 56 0ZM 2 2L 2 0L -2 0L -2 2L 2 2Z"/>
</defs>
</svg>
