<svg width="120" height="86" viewBox="0 0 120 86" version="1.1" xmlns="http://www.w3.org/2000/svg" xmlns:xlink="http://www.w3.org/1999/xlink">
<title>Group 6</title>
<desc>Created using Figma</desc>
<g id="Canvas" transform="translate(-8790 -4894)">
<g id="Group 6">
<g id="Rectangle 5">
<mask id="mask0_outline_ins">
<use xlink:href="#path0_fill" fill="white" transform="translate(8790 4910)"/>
</mask>
<g mask="url(#mask0_outline_ins)">
<use xlink:href="#path1_stroke_2x" transform="translate(8790 4910)" fill="#FFFFFF"/>
</g>
</g>
<g id="Rectangle 5">
<use xlink:href="#path0_fill" transform="translate(8806 4894)" fill="#4B4B4B"/>
<mask id="mask1_outline_ins">
<use xlink:href="#path0_fill" fill="white" transform="translate(8806 4894)"/>
</mask>
<g mask="url(#mask1_outline_ins)">
<use xlink:href="#path1_stroke_2x" transform="translate(8806 4894)" fill="#FFFFFF"/>
</g>
</g>
<g id="Group 5">
<g id="Oval">
<use xlink:href="#path2_fill" transform="translate(8861 4906)" fill="#4B4B4B"/>
<use xlink:href="#path3_stroke" transform="translate(8861 4906)" fill="#FFFFFF"/>
</g>
<g id="Oval 2">
<use xlink:href="#path4_fill" transform="translate(8881 4915)" fill="#EB484D"/>
</g>
<g id="Oval 2">
<mask id="mask2_outline_ins">
<use xlink:href="#path5_fill" fill="white" transform="translate(8877 4911)"/>
</mask>
<g mask="url(#mask2_outline_ins)">
<use xlink:href="#path6_stroke_2x" transform="translate(8877 4911)" fill="#FFFFFF"/>
</g>
</g>
</g>
<g id="Rectangle 27">
<use xlink:href="#path7_fill" transform="translate(8816 4904)" fill="#EB484D"/>
</g>
<g id="Rectangle 27">
<use xlink:href="#path8_fill" transform="translate(8826 4926)" fill="#FFFFFF"/>
</g>
<g id="Rectangle 27">
<use xlink:href="#path8_fill" transform="translate(8826 4934)" fill="#FFFFFF"/>
</g>
<g id="Rectangle 27">
<use xlink:href="#path8_fill" transform="translate(8826 4942)" fill="#FFFFFF"/>
</g>
</g>
</g>
<defs>
<path id="path0_fill" fill-rule="evenodd" d="M 0 0L 93 0L 93 70L 0 70L 0 0Z"/>
<path id="path1_stroke_2x" d="M 0 0L 0 -2L -2 -2L -2 0L 0 0ZM 93 0L 95 0L 95 -2L 93 -2L 93 0ZM 93 70L 93 72L 95 72L 95 70L 93 70ZM 0 70L -2 70L -2 72L 0 72L 0 70ZM 0 2L 93 2L 93 -2L 0 -2L 0 2ZM 91 0L 91 70L 95 70L 95 0L 91 0ZM 93 68L 0 68L 0 72L 93 72L 93 68ZM 2 70L 2 0L -2 0L -2 70L 2 70Z"/>
<path id="path2_fill" fill-rule="evenodd" d="M 24 26C 34.7397 26 43.8318 17.4655 46.8956 14.2266C 47.5549 13.5296 47.5549 12.4704 46.8956 11.7734C 43.8318 8.53449 34.7397 0 24 0C 13.2603 0 4.16823 8.53449 1.10442 11.7734C 0.445108 12.4704 0.445108 13.5296 1.10442 14.2266C 4.16823 17.4655 13.2603 26 24 26Z"/>
<path id="path3_stroke" d="M 46.8956 14.2266L 46.1691 13.5394L 46.8956 14.2266ZM 1.10442 11.7734L 0.377947 11.0862L 1.10442 11.7734ZM 46.8956 11.7734L 46.1691 12.4606L 46.8956 11.7734ZM 1.10442 14.2266L 1.83089 13.5394L 1.10442 14.2266ZM 24 27C 35.2019 27 44.5566 18.1544 47.6221 14.9138L 46.1691 13.5394C 43.1069 16.7766 34.2774 25 24 25L 24 27ZM 47.6221 11.0862C 44.5566 7.8456 35.2019 -1 24 -1L 24 1C 34.2774 1 43.1069 9.22338 46.1691 12.4606L 47.6221 11.0862ZM 24 -1C 12.7981 -1 3.44336 7.8456 0.377947 11.0862L 1.83089 12.4606C 4.8931 9.22338 13.7226 1 24 1L 24 -1ZM 0.377947 14.9138C 3.44336 18.1544 12.7981 27 24 27L 24 25C 13.7226 25 4.8931 16.7766 1.83089 13.5394L 0.377947 14.9138ZM 47.6221 14.9138C 48.6461 13.8313 48.6461 12.1687 47.6221 11.0862L 46.1691 12.4606C 46.4637 12.772 46.4637 13.228 46.1691 13.5394L 47.6221 14.9138ZM 0.377947 11.0862C -0.646069 12.1687 -0.646068 13.8313 0.377947 14.9138L 1.83089 13.5394C 1.53628 13.228 1.53629 12.772 1.83089 12.4606L 0.377947 11.0862Z"/>
<path id="path4_fill" fill-rule="evenodd" d="M 4 8C 6.20914 8 8 6.20914 8 4C 8 1.79086 6.20914 0 4 0C 1.79086 0 0 1.79086 0 4C 0 6.20914 1.79086 8 4 8Z"/>
<path id="path5_fill" fill-rule="evenodd" d="M 8 16C 12.4183 16 16 12.4183 16 8C 16 3.58172 12.4183 0 8 0C 3.58172 0 0 3.58172 0 8C 0 12.4183 3.58172 16 8 16Z"/>
<path id="path6_stroke_2x" d="M 8 18C 13.5228 18 18 13.5228 18 8L 14 8C 14 11.3137 11.3137 14 8 14L 8 18ZM 18 8C 18 2.47715 13.5228 -2 8 -2L 8 2C 11.3137 2 14 4.68629 14 8L 18 8ZM 8 -2C 2.47715 -2 -2 2.47715 -2 8L 2 8C 2 4.68629 4.68629 2 8 2L 8 -2ZM -2 8C -2 13.5228 2.47715 18 8 18L 8 14C 4.68629 14 2 11.3137 2 8L -2 8Z"/>
<path id="path7_fill" fill-rule="evenodd" d="M 0 0L 26 0L 26 6L 0 6L 0 0Z"/>
<path id="path8_fill" fill-rule="evenodd" d="M 0 0L 26 0L 26 2L 0 2L 0 0Z"/>
</defs>
</svg>
