<svg width="109" height="86" viewBox="0 0 109 86" version="1.1" xmlns="http://www.w3.org/2000/svg" xmlns:xlink="http://www.w3.org/1999/xlink">
<title>Group 6 Copy</title>
<desc>Created using Figma</desc>
<g id="Canvas" transform="translate(-9137 -4894)">
<g id="Group 6 Copy">
<g id="Rectangle 5">
<mask id="mask0_outline_ins">
<use xlink:href="#path0_fill" fill="white" transform="translate(9137 4894)"/>
</mask>
<g mask="url(#mask0_outline_ins)">
<use xlink:href="#path1_stroke_2x" transform="translate(9137 4894)" fill="#FFFFFF"/>
</g>
</g>
<g id="Rectangle 5">
<use xlink:href="#path2_fill" transform="translate(9139 4902)" fill="#FFFFFF"/>
</g>
<g id="Rectangle 5">
<use xlink:href="#path0_fill" transform="translate(9153 4910)" fill="#4B4B4B"/>
<mask id="mask1_outline_ins">
<use xlink:href="#path0_fill" fill="white" transform="translate(9153 4910)"/>
</mask>
<g mask="url(#mask1_outline_ins)">
<use xlink:href="#path1_stroke_2x" transform="translate(9153 4910)" fill="#FFFFFF"/>
</g>
</g>
<g id="Rectangle 27">
<mask id="mask2_outline_ins">
<use xlink:href="#path3_fill" fill="white" transform="translate(9163 4920)"/>
</mask>
<g mask="url(#mask2_outline_ins)">
<use xlink:href="#path4_stroke_2x" transform="translate(9163 4920)" fill="#EB484D"/>
</g>
</g>
<g id="Rectangle 27">
<use xlink:href="#path5_fill" transform="translate(9197 4944)" fill="#FFFFFF"/>
</g>
<g id="Rectangle 27">
<use xlink:href="#path6_fill" transform="translate(9197 4924)" fill="#FFFFFF"/>
</g>
<g id="Rectangle 27">
<use xlink:href="#path7_fill" transform="translate(9197 4951)" fill="#FFFFFF"/>
</g>
<g id="Rectangle 27">
<use xlink:href="#path7_fill" transform="translate(9197 4956)" fill="#FFFFFF"/>
</g>
<g id="Rectangle 27">
<use xlink:href="#path7_fill" transform="translate(9197 4961)" fill="#FFFFFF"/>
</g>
</g>
</g>
<defs>
<path id="path0_fill" fill-rule="evenodd" d="M 0 0L 93 0L 93 70L 0 70L 0 0Z"/>
<path id="path1_stroke_2x" d="M 0 0L 0 -2L -2 -2L -2 0L 0 0ZM 93 0L 95 0L 95 -2L 93 -2L 93 0ZM 93 70L 93 72L 95 72L 95 70L 93 70ZM 0 70L -2 70L -2 72L 0 72L 0 70ZM 0 2L 93 2L 93 -2L 0 -2L 0 2ZM 91 0L 91 70L 95 70L 95 0L 91 0ZM 93 68L 0 68L 0 72L 93 72L 93 68ZM 2 70L 2 0L -2 0L -2 70L 2 70Z"/>
<path id="path2_fill" fill-rule="evenodd" d="M 0 0L 89 0L 89 2L 0 2L 0 0Z"/>
<path id="path3_fill" fill-rule="evenodd" d="M 0 0L 24 0L 24 50L 0 50L 0 0Z"/>
<path id="path4_stroke_2x" d="M 0 0L 0 -2L -2 -2L -2 0L 0 0ZM 24 0L 26 0L 26 -2L 24 -2L 24 0ZM 24 50L 24 52L 26 52L 26 50L 24 50ZM 0 50L -2 50L -2 52L 0 52L 0 50ZM 0 2L 24 2L 24 -2L 0 -2L 0 2ZM 22 0L 22 50L 26 50L 26 0L 22 0ZM 24 48L 0 48L 0 52L 24 52L 24 48ZM 2 50L 2 0L -2 0L -2 50L 2 50Z"/>
<path id="path5_fill" fill-rule="evenodd" d="M 0 0L 14 0L 14 2L 0 2L 0 0Z"/>
<path id="path6_fill" fill-rule="evenodd" d="M 0 0L 26 0L 26 5L 0 5L 0 0Z"/>
<path id="path7_fill" fill-rule="evenodd" d="M 0 0L 34 0L 34 2L 0 2L 0 0Z"/>
</defs>
</svg>
