<?xml version="1.0" encoding="utf-8"?>
<!-- Generator: Adobe Illustrator 16.0.0, SVG Export Plug-In . SVG Version: 6.00 Build 0)  -->
<!DOCTYPE svg PUBLIC "-//W3C//DTD SVG 1.1//EN" "http://www.w3.org/Graphics/SVG/1.1/DTD/svg11.dtd">
<svg version="1.1" id="Layer_1" xmlns="http://www.w3.org/2000/svg" xmlns:xlink="http://www.w3.org/1999/xlink" x="0px" y="0px"
	 width="71.012px" height="47.341px" viewBox="0 0 71.012 47.341" enable-background="new 0 0 71.012 47.341" xml:space="preserve">
<path fill="#E1E1E5" d="M60.809,19.061c0.012-0.273,0.021-0.547,0.021-0.824C60.83,8.165,52.658,0,42.578,0
	c-7.301,0-13.597,4.284-16.516,10.471c-1.621-1.156-3.624-1.841-5.793-1.841c-5.396,0-9.77,4.229-9.77,9.444
	c0,0.775,0.098,1.526,0.28,2.246C4.624,21.631,0,27.198,0,33.868c0,7.644,6.072,13.473,13.561,13.473h44.473
	c7.167,0,12.978-6.12,12.978-14.124C71.012,26.277,66.642,20.48,60.809,19.061"/>
</svg>
