<?xml version="1.0" encoding="utf-8"?>
<!-- Generator: Adobe Illustrator 16.0.0, SVG Export Plug-In . SVG Version: 6.00 Build 0)  -->
<!DOCTYPE svg PUBLIC "-//W3C//DTD SVG 1.1//EN" "http://www.w3.org/Graphics/SVG/1.1/DTD/svg11.dtd">
<svg version="1.1" id="Layer_1" xmlns="http://www.w3.org/2000/svg" xmlns:xlink="http://www.w3.org/1999/xlink" x="0px" y="0px"
	 width="61px" height="46px" viewBox="0 0 61 46" enable-background="new 0 0 61 46" xml:space="preserve">
<path fill="#E1E1E5" d="M57,21H4c-2.2,0-4-1.8-4-4V4c0-2.2,1.8-4,4-4h53c2.2,0,4,1.8,4,4v13C61,19.2,59.2,21,57,21"/>
<path fill="#E1E1E5" d="M57,46H4c-2.2,0-4-1.8-4-4V29c0-2.2,1.8-4,4-4h53c2.2,0,4,1.8,4,4v13C61,44.2,59.2,46,57,46"/>
<path fill="#F8F8F8" d="M22,10.5c0,1.381-1.119,2.5-2.5,2.5S17,11.881,17,10.5S18.119,8,19.5,8S22,9.119,22,10.5"/>
<path fill="#F8F8F8" d="M33,10.5c0,1.381-1.119,2.5-2.5,2.5S28,11.881,28,10.5S29.119,8,30.5,8S33,9.119,33,10.5"/>
<path fill="#F8F8F8" d="M44,10.5c0,1.381-1.119,2.5-2.5,2.5S39,11.881,39,10.5S40.119,8,41.5,8S44,9.119,44,10.5"/>
</svg>
