<?xml version="1.0" encoding="utf-8"?>
<!-- Generator: Adobe Illustrator 16.0.0, SVG Export Plug-In . SVG Version: 6.00 Build 0)  -->
<!DOCTYPE svg PUBLIC "-//W3C//DTD SVG 1.1//EN" "http://www.w3.org/Graphics/SVG/1.1/DTD/svg11.dtd">
<svg version="1.1" id="Layer_1" xmlns="http://www.w3.org/2000/svg" xmlns:xlink="http://www.w3.org/1999/xlink" x="0px" y="0px"
	 width="51.167px" height="57.998px" viewBox="0 0 51.167 57.998" enable-background="new 0 0 51.167 57.998" xml:space="preserve">
<g>
	<g>
		<path fill="#FFFFFF" d="M2.5,47.498L2.5,47.498c-1.375,0-2.5-1.125-2.5-2.5v-10c0-1.375,1.125-2.5,2.5-2.5s2.5,1.125,2.5,2.5v10
			C5,46.373,3.875,47.498,2.5,47.498"/>
		<path fill="#FFFFFF" d="M12.5,50.498L12.5,50.498c-1.375,0-2.5-1.125-2.5-2.5v-16c0-1.375,1.125-2.5,2.5-2.5s2.5,1.125,2.5,2.5v16
			C15,49.373,13.875,50.498,12.5,50.498"/>
		<path fill="#FFFFFF" d="M21.5,54.998L21.5,54.998c-1.375,0-2.5-1.125-2.5-2.5v-25c0-1.375,1.125-2.5,2.5-2.5s2.5,1.125,2.5,2.5v25
			C24,53.873,22.875,54.998,21.5,54.998"/>
		<path fill="#FFFFFF" d="M31.5,57.998L31.5,57.998c-1.375,0-2.5-1.125-2.5-2.5v-32.5c0-1.375,1.125-2.5,2.5-2.5s2.5,1.125,2.5,2.5
			v32.5C34,56.873,32.875,57.998,31.5,57.998"/>
		<path fill="none" stroke="#FFFFFF" stroke-width="2" stroke-miterlimit="10" d="M3,28.498v-21c0-3.3,3.33-6.918,6.5-6
			c12.667,3.667,23.167,7.167,34.75,11c3.133,1.037,5.75,2.7,5.75,6v28c0,3.3-2.2,6-5.5,6l-6.25-2"/>
	</g>
</g>
</svg>
