<?xml version="1.0" encoding="utf-8"?>
<!-- Generator: Adobe Illustrator 16.0.0, SVG Export Plug-In . SVG Version: 6.00 Build 0)  -->
<!DOCTYPE svg PUBLIC "-//W3C//DTD SVG 1.1//EN" "http://www.w3.org/Graphics/SVG/1.1/DTD/svg11.dtd">
<svg version="1.1" id="Layer_1" xmlns="http://www.w3.org/2000/svg" xmlns:xlink="http://www.w3.org/1999/xlink" x="0px" y="0px"
	 width="154.843px" height="52px" viewBox="0 0 154.843 52" enable-background="new 0 0 154.843 52" xml:space="preserve">
<polygon fill="#E1E1E5" points="154.843,2.2 121.843,7 121.843,44 154.843,48.8 "/>
<line fill="none" stroke="#FFFFFF" stroke-width="2" stroke-miterlimit="10" x1="120.843" y1="26" x2="154.843" y2="26"/>
<line fill="none" stroke="#FFFFFF" stroke-width="2" stroke-miterlimit="10" x1="146.843" y1="48" x2="146.843" y2="3"/>
<path fill="#E1E1E5" d="M34.977,29.458c-1.411-7.101,5.329-11.266,5.329-11.266s-2.626-3.799-7.039-4.777
	c-4.412-0.979-6.619,0.245-8.823,1.162c-2.206,0.921-3.306,0.921-3.306,0.921c-3.183,0-5.51-3.371-11.574-1.836
	c-4.178,1.054-8.577,5.877-9.371,11.633c-0.795,5.759,0.92,13.107,4.227,18.801c3.306,5.699,6.674,7.841,9.064,7.903
	c2.391,0.059,4.777-1.713,7.654-2.144c2.879-0.427,4.651,1.043,7.475,1.838c2.813,0.792,3.801,0.057,7.04-2.699
	c3.249-2.756,6.19-10.66,6.19-10.66S36.388,36.563,34.977,29.458"/>
<path fill="#E1E1E5" d="M28.729,8.821c3.126-3.185,2.067-8.116,2.067-8.116s-4.39,0.77-7.33,3.83
	c-2.939,3.062-2.452,7.898-2.452,7.898S25.604,12.004,28.729,8.821"/>
<path fill="#E1E1E5" d="M103.843,21c0-1.704-1.296-3-3-3s-3,1.296-3,3v12.965c0,1.704,1.296,3.035,3,3.035s3-1.296,3-3V21z"/>
<path fill="#E1E1E5" d="M65.843,21c-0.001-1.704-1.296-3-3-3s-3,1.296-3,3v12.965c0,1.704,1.296,3.035,3,3.035s2.999-1.296,3-3V21z"
	/>
<path fill="#E1E1E5" d="M67.843,18v21c0,1.698,1.302,3,3,3h3v7c0.001,1.704,1.296,3,3,3s2.999-1.296,3-3v-5v-2h4v2v5
	c0.001,1.704,1.243,3,2.947,3c1.703,0,3.052-1.296,3.053-3l0.033-5.334L89.843,42h3c1.698,0,3-1.302,3-3V18H67.843z"/>
<path fill="#E1E1E5" d="M95.843,15.873l-0.127-1.488c-0.041-0.422-0.104-0.838-0.191-1.247c-0.764-3.62-3.289-6.686-6.753-8.466
	l2.131-3.931c0.132-0.243,0.042-0.548-0.202-0.68c-0.243-0.132-0.548-0.041-0.68,0.202l-2.158,3.981
	c-1.833-0.788-3.89-1.23-6.063-1.23c-2.188,0-4.26,0.448-6.104,1.248l-2.167-3.999c-0.132-0.243-0.436-0.334-0.68-0.202
	c-0.243,0.132-0.334,0.437-0.202,0.68l2.142,3.952c-3.301,1.71-5.744,4.591-6.61,8.004c-0.225,0.885-0.345,1.807-0.345,2.753
	c0,0.142,0.004,0.282,0.01,0.423H95.843z M88.127,8.311c0.726,0,1.313,0.587,1.313,1.312c0,0.724-0.587,1.312-1.313,1.312
	c-0.724,0-1.311-0.588-1.311-1.312C86.816,8.897,87.403,8.311,88.127,8.311 M75.421,8.311c0.725,0,1.313,0.587,1.313,1.312
	c0,0.724-0.588,1.312-1.313,1.312c-0.724,0-1.312-0.588-1.312-1.312C74.109,8.897,74.697,8.311,75.421,8.311"/>
</svg>
