<?xml version="1.0" encoding="utf-8"?>
<!-- Generator: Adobe Illustrator 16.0.0, SVG Export Plug-In . SVG Version: 6.00 Build 0)  -->
<!DOCTYPE svg PUBLIC "-//W3C//DTD SVG 1.1//EN" "http://www.w3.org/Graphics/SVG/1.1/DTD/svg11.dtd">
<svg version="1.1" id="Layer_1" xmlns="http://www.w3.org/2000/svg" xmlns:xlink="http://www.w3.org/1999/xlink" x="0px" y="0px"
	 width="50px" height="64px" viewBox="0 0 50 64" enable-background="new 0 0 50 64" xml:space="preserve">
<path fill="#514BFF" d="M326.87-115.902c-0.029-0.064-0.057-0.117-0.082-0.159c-0.424-0.766-1.235-1.703-2.434-2.815l-0.025-0.025
	l-0.012-0.013l-0.013-0.013h-0.013c-0.543-0.518-0.889-0.866-1.032-1.044c-0.263-0.34-0.322-0.684-0.179-1.032
	c0.102-0.264,0.484-0.818,1.146-1.669c0.348-0.45,0.624-0.81,0.828-1.082c1.469-1.953,2.105-3.201,1.91-3.745l-0.076-0.127
	c-0.05-0.076-0.182-0.146-0.395-0.21c-0.213-0.063-0.483-0.074-0.815-0.032l-3.668,0.026c-0.06-0.021-0.144-0.019-0.254,0.006
	c-0.111,0.026-0.166,0.038-0.166,0.038l-0.064,0.032l-0.05,0.039c-0.043,0.024-0.09,0.07-0.141,0.133
	c-0.051,0.064-0.094,0.138-0.127,0.223c-0.399,1.028-0.854,1.983-1.363,2.866c-0.314,0.526-0.602,0.983-0.866,1.369
	c-0.263,0.386-0.483,0.671-0.662,0.854c-0.178,0.183-0.339,0.328-0.483,0.439c-0.146,0.11-0.256,0.157-0.332,0.14
	c-0.076-0.017-0.148-0.033-0.217-0.051c-0.119-0.077-0.213-0.181-0.285-0.312c-0.073-0.132-0.121-0.298-0.147-0.497
	c-0.024-0.2-0.04-0.372-0.044-0.517c-0.004-0.144-0.003-0.348,0.006-0.61c0.01-0.265,0.014-0.442,0.014-0.535
	c0-0.323,0.006-0.673,0.019-1.051s0.022-0.678,0.032-0.898c0.008-0.221,0.012-0.454,0.012-0.7c0-0.247-0.016-0.439-0.044-0.58
	c-0.029-0.14-0.074-0.275-0.134-0.407c-0.059-0.132-0.146-0.233-0.262-0.306c-0.113-0.071-0.257-0.13-0.426-0.172
	c-0.449-0.102-1.023-0.157-1.72-0.166c-1.579-0.017-2.595,0.085-3.044,0.307c-0.178,0.093-0.34,0.221-0.484,0.382
	c-0.152,0.187-0.174,0.289-0.063,0.306c0.51,0.076,0.87,0.259,1.083,0.547l0.076,0.153c0.06,0.11,0.119,0.306,0.179,0.586
	c0.059,0.28,0.097,0.59,0.114,0.93c0.043,0.62,0.043,1.15,0,1.592s-0.082,0.785-0.121,1.031c-0.038,0.247-0.096,0.446-0.172,0.6
	c-0.076,0.152-0.127,0.245-0.153,0.279c-0.025,0.034-0.046,0.056-0.063,0.064c-0.109,0.042-0.225,0.063-0.344,0.063
	s-0.263-0.06-0.434-0.179c-0.17-0.119-0.346-0.282-0.528-0.49s-0.388-0.499-0.617-0.873c-0.229-0.373-0.467-0.814-0.714-1.323
	l-0.203-0.37c-0.128-0.237-0.302-0.583-0.523-1.038c-0.219-0.454-0.416-0.894-0.584-1.318c-0.068-0.178-0.17-0.313-0.307-0.407
	l-0.063-0.039c-0.042-0.033-0.11-0.069-0.203-0.107c-0.095-0.038-0.191-0.066-0.293-0.083l-3.49,0.025
	c-0.356,0-0.599,0.08-0.726,0.242l-0.051,0.076c-0.026,0.043-0.039,0.111-0.039,0.204s0.025,0.208,0.076,0.344
	c0.51,1.197,1.063,2.353,1.662,3.464c0.6,1.112,1.119,2.009,1.561,2.688c0.441,0.68,0.892,1.321,1.35,1.924
	c0.459,0.602,0.762,0.989,0.911,1.159c0.147,0.17,0.265,0.297,0.351,0.382l0.318,0.305c0.203,0.204,0.503,0.448,0.896,0.733
	c0.396,0.284,0.834,0.563,1.313,0.84c0.48,0.276,1.038,0.501,1.675,0.675c0.638,0.174,1.257,0.244,1.86,0.211h1.465
	c0.297-0.025,0.521-0.119,0.675-0.28l0.05-0.063c0.034-0.051,0.066-0.13,0.096-0.236c0.031-0.105,0.045-0.223,0.045-0.35
	c-0.008-0.365,0.019-0.694,0.083-0.987c0.063-0.293,0.136-0.514,0.217-0.662s0.172-0.273,0.272-0.376
	c0.103-0.102,0.176-0.162,0.217-0.185c0.044-0.021,0.076-0.035,0.103-0.044c0.204-0.068,0.443-0.002,0.72,0.197
	s0.535,0.445,0.777,0.738s0.532,0.622,0.872,0.987s0.638,0.637,0.892,0.815l0.254,0.152c0.17,0.103,0.392,0.196,0.664,0.28
	c0.271,0.085,0.508,0.107,0.713,0.064l3.26-0.052c0.322,0,0.574-0.053,0.752-0.158c0.178-0.106,0.283-0.224,0.318-0.351
	c0.033-0.128,0.035-0.271,0.006-0.434C326.93-115.726,326.9-115.838,326.87-115.902"/>
<path fill="#514BFF" d="M-83.744-15.761v3.374H-86v4.126h2.256V4h4.634V-8.26H-76c0,0,0.291-1.979,0.432-4.143h-3.523v-2.82
	c0-0.423,0.505-0.989,1.004-0.989h2.525v-4.295h-3.434C-83.859-20.508-83.744-16.378-83.744-15.761"/>
<path fill="#514BFF" d="M-170.925,115.823c-0.797,0.353-1.652,0.593-2.551,0.698c0.918-0.549,1.619-1.42,1.953-2.454
	c-0.861,0.509-1.811,0.878-2.822,1.077c-0.812-0.863-1.963-1.402-3.242-1.402c-2.452,0-4.441,1.988-4.441,4.439
	c0,0.349,0.039,0.688,0.115,1.013c-3.691-0.186-6.963-1.953-9.154-4.641c-0.383,0.655-0.6,1.418-0.6,2.232
	c0,1.541,0.783,2.9,1.975,3.696c-0.728-0.024-1.412-0.225-2.012-0.558v0.055c0,2.151,1.532,3.947,3.563,4.355
	c-0.373,0.1-0.765,0.156-1.17,0.156c-0.287,0-0.564-0.029-0.836-0.083c0.564,1.766,2.204,3.05,4.147,3.085
	c-1.519,1.19-3.435,1.897-5.517,1.897c-0.357,0-0.711-0.021-1.059-0.061c1.966,1.262,4.299,1.998,6.809,1.998
	c8.17,0,12.635-6.768,12.635-12.636l-0.014-0.574C-172.274,117.495-171.519,116.713-170.925,115.823"/>
<path fill="#333333" d="M47,64H3c-1.65,0-3-1.35-3-3V3c0-1.65,1.35-3,3-3h32.875C38.156,0,50,11.656,50,13.875V61
	C50,62.65,48.65,64,47,64"/>
<path fill="#3A3A3A" d="M36,0.018V12c0,1.101,0.9,2,2,2h12v-0.125C50,11.692,38.544,0.385,36,0.018"/>
</svg>
