<?xml version="1.0" encoding="utf-8"?>
<!-- Generator: Adobe Illustrator 16.0.0, SVG Export Plug-In . SVG Version: 6.00 Build 0)  -->
<!DOCTYPE svg PUBLIC "-//W3C//DTD SVG 1.1//EN" "http://www.w3.org/Graphics/SVG/1.1/DTD/svg11.dtd">
<svg version="1.1" id="Layer_1" xmlns="http://www.w3.org/2000/svg" xmlns:xlink="http://www.w3.org/1999/xlink" x="0px" y="0px"
	 width="24.463px" height="13.957px" viewBox="0 0 24.463 13.957" enable-background="new 0 0 24.463 13.957" xml:space="preserve">
<path fill="#514BFF" d="M24.333,12.605c-0.029-0.064-0.057-0.117-0.082-0.159c-0.424-0.766-1.235-1.703-2.434-2.815l-0.025-0.025
	L21.78,9.592L21.768,9.58h-0.013c-0.543-0.518-0.889-0.866-1.032-1.044c-0.263-0.34-0.322-0.684-0.179-1.032
	c0.102-0.264,0.484-0.818,1.146-1.669c0.348-0.45,0.624-0.81,0.828-1.082c1.469-1.953,2.105-3.201,1.91-3.745L24.353,0.88
	c-0.05-0.076-0.182-0.146-0.395-0.21c-0.213-0.063-0.483-0.074-0.815-0.032l-3.668,0.026c-0.06-0.021-0.144-0.019-0.254,0.006
	c-0.111,0.026-0.166,0.038-0.166,0.038L18.99,0.741L18.94,0.78c-0.043,0.024-0.09,0.07-0.141,0.133
	c-0.051,0.064-0.094,0.138-0.127,0.223c-0.399,1.028-0.854,1.983-1.363,2.866c-0.314,0.526-0.602,0.983-0.866,1.369
	c-0.263,0.386-0.483,0.671-0.662,0.854c-0.178,0.183-0.339,0.328-0.483,0.439c-0.146,0.11-0.256,0.157-0.332,0.14
	c-0.076-0.017-0.148-0.033-0.217-0.051c-0.119-0.077-0.213-0.181-0.285-0.312c-0.073-0.132-0.121-0.298-0.147-0.497
	c-0.024-0.2-0.04-0.372-0.044-0.517c-0.004-0.144-0.003-0.348,0.006-0.61c0.01-0.265,0.014-0.442,0.014-0.535
	c0-0.323,0.006-0.673,0.019-1.051s0.022-0.678,0.032-0.898c0.008-0.221,0.012-0.454,0.012-0.7c0-0.247-0.016-0.439-0.044-0.58
	c-0.029-0.14-0.074-0.275-0.134-0.407c-0.059-0.132-0.146-0.233-0.262-0.306c-0.113-0.071-0.257-0.13-0.426-0.172
	c-0.449-0.102-1.023-0.157-1.72-0.166C10.19-0.015,9.175,0.086,8.726,0.308C8.548,0.401,8.386,0.529,8.241,0.69
	C8.089,0.876,8.067,0.979,8.178,0.996c0.51,0.076,0.87,0.259,1.083,0.547l0.076,0.153c0.06,0.11,0.119,0.306,0.179,0.586
	c0.059,0.28,0.097,0.59,0.114,0.93c0.043,0.62,0.043,1.15,0,1.592S9.548,5.588,9.509,5.834c-0.038,0.247-0.096,0.446-0.172,0.6
	C9.261,6.586,9.21,6.679,9.184,6.713C9.158,6.748,9.138,6.769,9.12,6.778C9.011,6.82,8.896,6.841,8.776,6.841
	s-0.263-0.06-0.434-0.179c-0.17-0.119-0.346-0.282-0.528-0.49S7.427,5.673,7.197,5.299C6.968,4.926,6.73,4.485,6.483,3.976
	L6.28,3.606C6.152,3.369,5.979,3.023,5.757,2.568C5.538,2.114,5.341,1.674,5.173,1.25c-0.068-0.178-0.17-0.313-0.307-0.407
	L4.803,0.803C4.761,0.77,4.692,0.734,4.6,0.696C4.505,0.658,4.408,0.629,4.307,0.613l-3.49,0.025c-0.356,0-0.599,0.08-0.726,0.242
	L0.04,0.957C0.014,1,0.001,1.068,0.001,1.161s0.025,0.208,0.076,0.344c0.51,1.197,1.063,2.353,1.662,3.464
	c0.6,1.112,1.119,2.009,1.561,2.688c0.441,0.68,0.892,1.321,1.35,1.924c0.459,0.602,0.762,0.989,0.911,1.159
	c0.147,0.17,0.265,0.297,0.351,0.382l0.318,0.305c0.203,0.204,0.503,0.448,0.896,0.733c0.396,0.284,0.834,0.563,1.313,0.84
	c0.48,0.276,1.038,0.501,1.675,0.675c0.638,0.174,1.257,0.244,1.86,0.211h1.465c0.297-0.025,0.521-0.119,0.675-0.28l0.05-0.063
	c0.034-0.051,0.066-0.13,0.096-0.236c0.031-0.105,0.045-0.223,0.045-0.35c-0.008-0.365,0.019-0.694,0.083-0.987
	c0.063-0.293,0.136-0.514,0.217-0.662s0.172-0.273,0.272-0.376c0.103-0.102,0.176-0.162,0.217-0.185
	c0.044-0.021,0.076-0.035,0.103-0.044c0.204-0.068,0.443-0.002,0.72,0.197s0.535,0.445,0.777,0.738s0.532,0.622,0.872,0.987
	s0.638,0.637,0.892,0.815l0.254,0.152c0.17,0.103,0.392,0.196,0.664,0.28c0.271,0.085,0.508,0.107,0.713,0.064l3.26-0.052
	c0.322,0,0.574-0.053,0.752-0.158c0.178-0.106,0.283-0.224,0.318-0.351c0.033-0.128,0.035-0.271,0.006-0.434
	C24.393,12.781,24.363,12.668,24.333,12.605"/>
<path fill="#514BFF" d="M-386.281,112.746v3.374h-2.256v4.126h2.256v12.261h4.634v-12.26h3.11c0,0,0.291-1.979,0.432-4.143h-3.523
	v-2.82c0-0.423,0.505-0.989,1.004-0.989h2.525V108h-3.434C-386.396,107.999-386.281,112.129-386.281,112.746"/>
<path fill="#514BFF" d="M-473.462,244.33c-0.797,0.353-1.652,0.593-2.551,0.698c0.918-0.549,1.619-1.42,1.953-2.454
	c-0.861,0.509-1.811,0.878-2.822,1.077c-0.812-0.863-1.963-1.402-3.242-1.402c-2.452,0-4.441,1.988-4.441,4.439
	c0,0.349,0.039,0.688,0.115,1.013c-3.691-0.186-6.963-1.953-9.154-4.641c-0.383,0.655-0.6,1.418-0.6,2.232
	c0,1.541,0.783,2.9,1.975,3.696c-0.728-0.024-1.412-0.225-2.012-0.558v0.055c0,2.151,1.532,3.947,3.563,4.355
	c-0.373,0.1-0.765,0.156-1.17,0.156c-0.287,0-0.564-0.029-0.836-0.083c0.564,1.766,2.204,3.05,4.147,3.085
	c-1.519,1.19-3.435,1.897-5.517,1.897c-0.357,0-0.711-0.021-1.059-0.061c1.966,1.262,4.299,1.998,6.809,1.998
	c8.17,0,12.635-6.768,12.635-12.636l-0.014-0.574C-474.812,246.002-474.056,245.22-473.462,244.33"/>
<path fill="#333333" d="M-255.537,192.507h-44c-1.65,0-3-1.35-3-3v-58c0-1.65,1.35-3,3-3h32.875
	c2.281,0,14.125,11.656,14.125,13.875v47.125C-252.537,191.157-253.887,192.507-255.537,192.507"/>
<path fill="#3A3A3A" d="M-266.537,128.524v11.982c0,1.101,0.9,2,2,2h12v-0.125C-252.537,140.199-263.993,128.892-266.537,128.524"/>
</svg>
