<?xml version="1.0" standalone="no"?>
<!DOCTYPE svg PUBLIC "-//W3C//DTD SVG 20010904//EN"
 "http://www.w3.org/TR/2001/REC-SVG-20010904/DTD/svg10.dtd">
<svg version="1.0" xmlns="http://www.w3.org/2000/svg"
 width="16.000000pt" height="16.000000pt" viewBox="0 0 16.000000 16.000000"
 preserveAspectRatio="xMidYMid meet">
<metadata>
Created by potrace 1.11, written by Peter Selinger 2001-2013
</metadata>
<g transform="translate(0.000000,16.000000) scale(0.017778,-0.017778)"
fill="#000000" stroke="none">
<path d="M699 757 c-24 -23 -65 -61 -91 -84 l-48 -43 -210 0 -211 0 23 -30 22
-30 200 0 201 1 31 27 c17 15 57 49 88 76 l56 49 53 -36 c51 -33 54 -34 65
-16 7 10 12 21 12 24 0 2 -33 27 -73 54 l-73 49 -45 -41z"/>
<path d="M729 638 c-1 -2 -3 -54 -4 -117 l-2 -114 -40 -36 c-150 -135 -140
-128 -211 -130 -39 0 -61 -7 -82 -23 -16 -13 -29 -25 -29 -29 -1 -3 46 -5 103
-5 l104 1 106 93 106 93 0 104 0 105 28 0 c19 0 30 7 38 25 7 13 9 26 6 30 -5
5 -121 8 -123 3z"/>
<path d="M210 542 c0 -2 11 -14 24 -28 23 -26 25 -26 172 -25 148 2 149 2 176
29 l28 27 -200 0 c-110 0 -200 -1 -200 -3z"/>
<path d="M345 472 c-3 -4 -23 -5 -43 -3 l-37 3 28 -29 c25 -27 32 -29 101 -28
64 1 78 5 105 27 l30 26 -50 4 c-28 1 -53 0 -55 -3 -2 -4 -19 -3 -38 1 -19 4
-38 5 -41 2z"/>
<path d="M254 316 c-164 -146 -216 -191 -225 -194 -24 -9 -4 -22 34 -22 38 0
51 6 103 51 32 29 61 55 64 58 3 3 35 32 72 64 l66 57 119 0 c116 0 120 1 153
28 l33 28 -169 1 -170 0 -80 -71z"/>
</g>
</svg>
